# xmcd CD database file
#
# Track frame offsets:
#	150
#	13396
#	27687
#	44092
#	58726
#	73899
#	92462
#	109811
#	127729
#	143566
#	162113
#	179206
#	196003
#	211137
#
# Disc length: 3029 seconds
#
# Revision: 0
# Processed by: cddbd v1.5.1PL0 Copyright (c) Steve Scherf et al.
# Submitted via: CDex 1.51
#
DISCID=cd0bd30e
DTITLE=Lee Ryan - Lee Ryan
DYEAR=2005
DGENRE=Blues
TTITLE0=Army Of Lovers
TTITLE1=Turn Your Car Around
TTITLE2=When I Think Of You
TTITLE3=Real Love
TTITLE4=Parking
TTITLE5=Wish The Whole World Knew
TTITLE6=Close To You
TTITLE7=Miss My Everything
TTITLE8=Daydreamer
TTITLE9=Jump
TTITLE10=How Do I?
TTITLE11=In The Morning
TTITLE12=These Words
TTITLE13=Movin'on
EXTD=YEAR: 2005
EXTT0=
EXTT1=
EXTT2=
EXTT3=
EXTT4=
EXTT5=
EXTT6=
EXTT7=
EXTT8=
EXTT9=
EXTT10=
EXTT11=
EXTT12=
EXTT13=
PLAYORDER=
